# xmcd
#
# Track frame offsets:
#	150
#	18650
#	32548
#	49881
#	70246
#	95966
#	113273
#	133348
#	148800
#	165733
#	183812
#	197475
#	216669
#	234887
#	251730
#	272215
#	284569
#
# Disc length: 4402 seconds
#
# Revision: 0
# Processed by: cddbd v1.4PL0 Copyright (c) Steve Scherf et al.
# Submitted via: MusicWizard 6.0.1
#
DISCID=08113011
DTITLE=Various Artist - Chris Cagle - I Breathe In I Breathe Out
DYEAR=1900
DGENRE=Country
TTITLE0=Chris Cagle - I Breathe In I Breathe Out
TTITLE1=Chris Cagle - My Love Goes On
TTITLE2=Chris Cagle - Loredo
TTITLE3=Brooks And Dunn - Steers And Stripes
TTITLE4=Bob Carlisle - Butterfly Kisses
TTITLE5=Blake Shelton - Austin
TTITLE6=Carolyn Dawn Johnson - Room With A
TTITLE7=Cindy Thompson - What I Really Meant
TTITLE8=Jo Dee Messina - Downtime
TTITLE9=Jo Dee Messina - Bring On The Rain
TTITLE10=Keith Urban - Where The Blacktop
TTITLE11=Lonestar - I'm Allready There
TTITLE12=Lonestar - Amazed
TTITLE13=Montgomery Gentry - She Couldn't
TTITLE14=Tim Mcgraw - Set This Circus Down
TTITLE15=Toby Keith - I'm Just Talking About
TTITLE16=Vanessa Mae - Butterfly Lovers
EXTD=
EXTT0=
EXTT1=
EXTT2=
EXTT3=
EXTT4=
EXTT5=
EXTT6=
EXTT7=
EXTT8=
EXTT9=
EXTT10=
EXTT11=
EXTT12=
EXTT13=
EXTT14=
EXTT15=
EXTT16=
PLAYORDER=
